# xmcd
#
# Track frame offsets:
#	150
#	15919
#	33339
#	50476
#	65144
#	82072
#	98546
#	114385
#	132854
#	144531
#	162969
#	182041
#	206160
#	233052
#
# Disc length: 3115 seconds
#
# Revision: 0
# Processed by: cddbd v1.5.2PL0 Copyright (c) Steve Scherf et al.
# Submitted via: audiograbber 1.83.01
#
DISCID=ba0c290e
DTITLE=Various Artist - I believe to soul
DYEAR=1900
DGENRE=Soul
TTITLE0=Mavis Staples - You must have a true religion
TTITLE1=Billy Preston - Both ways
TTITLE2=Ann Peebles - Tonight I'll sleeping here with you
TTITLE3=Irma Thomas - The same love that made laugh
TTITLE4=Allen Toussaint - Mi amour
TTITLE5=Mavis Staples - Keep on pushing
TTITLE6=Billy Preston - As one
TTITLE7=Irma Thomas - Lovin' arms
TTITLE8=Allen Toussaint - River boat
TTITLE9=Mavis Staples - That's enough
TTITLE10=Allen Toussaint - Turvalon
TTITLE11=Ann Peebles - When the candle burns lowTrack 12
TTITLE12=Allen Toussaint - We are one
TTITLE13=None - Data Track
EXTD=
EXTT0=
EXTT1=
EXTT2=
EXTT3=
EXTT4=
EXTT5=
EXTT6=
EXTT7=
EXTT8=
EXTT9=
EXTT10=
EXTT11=
EXTT12=
EXTT13=
PLAYORDER=
